<?xml version="1.0" standalone="no"?>
<!DOCTYPE svg PUBLIC "-//W3C//DTD SVG 20010904//EN"
 "http://www.w3.org/TR/2001/REC-SVG-20010904/DTD/svg10.dtd">
<svg version="1.0" xmlns="http://www.w3.org/2000/svg"
 width="1338.000000pt" height="1545.000000pt" viewBox="0 0 1338.000000 1545.000000"
 preserveAspectRatio="xMidYMid meet">
<metadata>
Created by potrace 1.16, written by Peter Selinger 2001-2019
</metadata>
<g transform="translate(0.000000,1545.000000) scale(0.100000,-0.100000)"
fill="#2596be" stroke="none">
<path d="M5863 15118 l-573 -331 0 -667 0 -667 575 -332 575 -332 575 332 575
332 0 667 0 667 -574 331 c-316 183 -576 332 -578 332 -1 -1 -261 -150 -575
-332z"/>
<path d="M8900 13491 l-565 -327 0 -669 0 -669 570 -329 c477 -275 574 -328
592 -321 13 5 272 153 577 329 l555 320 0 670 0 670 -568 328 c-313 180 -575
327 -582 326 -8 0 -268 -148 -579 -328z"/>
<path d="M3000 13457 l-475 -275 0 -562 0 -562 475 -275 c261 -150 482 -272
490 -270 8 3 224 126 480 274 l465 269 0 564 0 564 -465 269 c-256 148 -472
271 -480 274 -8 2 -229 -120 -490 -270z"/>
<path d="M11653 11909 l-573 -331 0 -667 0 -666 576 -332 576 -332 574 331
574 332 -2 669 -3 670 -569 328 c-314 181 -572 329 -575 329 -4 0 -264 -149
-578 -331z"/>
<path d="M412 11593 l-272 -157 0 -316 0 -316 267 -154 c147 -85 274 -154 283
-154 9 0 136 69 283 154 l267 154 0 316 0 316 -262 151 c-145 84 -270 154
-278 157 -9 4 -128 -59 -288 -151z"/>
<path d="M4770 10585 c-51 -22 -2745 -2728 -2761 -2774 -18 -53 -7 -134 26
-181 43 -61 2718 -2718 2749 -2730 44 -16 123 -12 164 9 20 11 281 264 578
563 437 437 544 551 554 582 17 53 6 131 -24 175 -13 20 -126 142 -250 271
l-225 235 880 881 881 881 97 -101 c54 -56 115 -120 136 -144 61 -68 123 -91
194 -72 117 31 185 175 132 278 -21 40 -184 214 -598 639 l-262 269 384 384
384 384 1098 -1091 c604 -601 1143 -1137 1197 -1192 l100 -100 -1082 -1088
c-1450 -1459 -1298 -1312 -1320 -1288 -11 11 -175 181 -365 377 -191 196 -347
361 -347 366 0 5 294 308 653 673 1142 1161 1097 1111 1097 1199 0 73 -58 153
-132 184 -52 22 -98 20 -146 -6 -22 -13 -139 -125 -259 -249 -120 -124 -526
-538 -902 -920 -376 -382 -701 -716 -722 -742 -66 -83 -73 -168 -19 -249 15
-22 191 -209 391 -415 200 -206 426 -441 503 -522 76 -80 152 -154 170 -163
44 -24 129 -23 182 3 30 14 429 408 1391 1375 741 745 1353 1365 1360 1377 20
35 16 125 -8 173 -14 30 -408 429 -1375 1391 -745 741 -1365 1353 -1377 1360
-35 19 -125 16 -171 -7 -27 -13 -224 -202 -583 -562 -488 -490 -542 -547 -553
-587 -16 -59 -5 -119 29 -172 16 -24 124 -143 241 -264 l211 -219 -881 -881
-881 -880 -137 142 c-111 115 -145 143 -177 152 -49 13 -51 13 -98 0 -79 -22
-147 -111 -147 -194 0 -85 6 -92 677 -783 l202 -208 -384 -384 -384 -384
-1195 1188 c-658 654 -1196 1191 -1196 1195 1 3 536 544 1189 1201 l1188 1195
234 -240 c128 -132 296 -303 372 -381 l138 -141 -563 -572 c-1188 -1208 -1197
-1217 -1198 -1291 0 -77 53 -159 125 -191 50 -23 99 -23 147 -1 24 11 157 139
365 354 180 185 600 614 933 952 333 339 613 632 624 651 10 20 21 56 24 80 9
85 -16 118 -390 503 -189 195 -418 433 -511 530 -92 98 -182 185 -200 195 -39
21 -128 22 -177 2z"/>
<path d="M11655 8702 l-570 -330 -2 -668 -2 -669 565 -325 c311 -179 575 -325
587 -325 12 0 275 147 584 325 l563 325 -3 670 -2 669 -560 324 c-308 178
-567 326 -575 328 -8 3 -271 -143 -585 -324z"/>
<path d="M307 8254 l-287 -166 0 -343 0 -343 281 -162 c155 -89 289 -164 298
-167 10 -2 139 66 302 160 l284 165 0 347 0 347 -283 164 c-156 90 -289 164
-295 164 -7 0 -141 -75 -300 -166z"/>
<path d="M11648 5532 l-567 -327 2 -669 2 -668 570 -330 c314 -181 577 -327
585 -324 8 2 267 150 575 328 l560 324 2 669 3 670 -562 324 c-309 179 -571
326 -582 328 -13 2 -235 -120 -588 -325z"/>
<path d="M383 4918 l-383 -221 0 -452 0 -452 385 -222 c212 -122 389 -221 394
-219 5 2 180 102 390 223 l381 220 0 450 0 450 -381 220 c-210 121 -387 221
-393 222 -6 1 -183 -97 -393 -219z"/>
<path d="M8905 3952 l-570 -330 -2 -668 -2 -669 565 -325 c311 -179 575 -325
587 -325 12 0 275 147 584 325 l563 325 -3 670 -2 669 -560 324 c-308 178
-567 326 -575 328 -8 3 -271 -143 -585 -324z"/>
<path d="M3000 3707 l-475 -275 0 -562 0 -562 475 -275 c261 -150 482 -272
490 -270 8 3 224 126 480 274 l465 269 0 564 0 564 -465 269 c-256 148 -472
271 -480 274 -8 2 -229 -120 -490 -270z"/>
<path d="M5862 2327 l-572 -332 2 -668 3 -669 570 -329 c314 -181 572 -329
575 -329 3 0 262 148 575 329 l570 329 3 669 2 668 -571 330 c-314 182 -574
331 -578 332 -3 1 -264 -148 -579 -330z"/>
</g>
</svg>
